<?xml version="1.0" encoding="UTF-8"?>
<svg xmlns="http://www.w3.org/2000/svg" viewBox="0 0 60 60">
  <defs>
    <linearGradient id="logoGrad" x1="0%" y1="0%" x2="100%" y2="100%">
      <stop offset="0%" stop-color="#1a5248"/>
      <stop offset="100%" stop-color="#4ECDC4"/>
    </linearGradient>
    <linearGradient id="shineGrad" x1="0%" y1="0%" x2="60%" y2="100%">
      <stop offset="0%" stop-color="rgba(255,255,255,0.3)"/>
      <stop offset="100%" stop-color="rgba(255,255,255,0)"/>
    </linearGradient>
  </defs>
  <!-- 배경 라운드 사각형 -->
  <rect width="60" height="60" rx="14" fill="url(#logoGrad)"/>
  <!-- 광택 오버레이 -->
  <rect width="60" height="30" rx="14" fill="url(#shineGrad)"/>
  <rect x="0" y="14" width="60" height="16" fill="url(#shineGrad)"/>

  <!-- 세 개의 발가락 패드 (상단) -->
  <ellipse cx="16" cy="19" rx="4.8" ry="5.8" fill="rgba(255,255,255,0.88)"/>
  <ellipse cx="30" cy="15" rx="5.2" ry="6.2" fill="rgba(255,255,255,0.88)"/>
  <ellipse cx="44" cy="19" rx="4.8" ry="5.8" fill="rgba(255,255,255,0.88)"/>

  <!-- 메인 패드: 이빨 모양의 발바닥 -->
  <path d="M30 27C36 27 43 31 43 38C43 42 41 46 39.5 49L38 53C37.5 55 36 55.5 34.5 55.5C33 55.5 32 54 31.5 52.5L30 49.5L28.5 52.5C28 54 27 55.5 25.5 55.5C24 55.5 22.5 55 22 53L20.5 49C19 46 17 42 17 38C17 31 24 27 30 27Z" fill="rgba(255,255,255,0.93)"/>

  <!-- 이빨 하이라이트 (작은 광택 점) -->
  <ellipse cx="24.5" cy="35.5" rx="2" ry="3" fill="rgba(30,82,72,0.12)"/>
</svg>
